<?xml version="1.0" encoding="UTF-8" standalone="no"?>
<!-- Created with Inkscape (http://www.inkscape.org/) -->

<svg
   xmlns:dc="http://purl.org/dc/elements/1.1/"
   xmlns:cc="http://creativecommons.org/ns#"
   xmlns:rdf="http://www.w3.org/1999/02/22-rdf-syntax-ns#"
   xmlns:svg="http://www.w3.org/2000/svg"
   xmlns="http://www.w3.org/2000/svg"
   xmlns:sodipodi="http://sodipodi.sourceforge.net/DTD/sodipodi-0.dtd"
   xmlns:inkscape="http://www.inkscape.org/namespaces/inkscape"
   version="1.1"
   id="svg2"
   xml:space="preserve"
   width="741.17535"
   height="338.73752"
   viewBox="0 0 741.17535 338.73752"
   sodipodi:docname="weld-symbols-3.svg"
   inkscape:version="0.92.4 (5da689c313, 2019-01-14)"><metadata
     id="metadata8"><rdf:RDF><cc:Work
         rdf:about=""><dc:format>image/svg+xml</dc:format><dc:type
           rdf:resource="http://purl.org/dc/dcmitype/StillImage" /><dc:title></dc:title></cc:Work></rdf:RDF></metadata><defs
     id="defs6"><clipPath
       clipPathUnits="userSpaceOnUse"
       id="clipPath18"><path
         d="M 350,314 H 18848 V 24860 H 350 V 314"
         id="path16"
         inkscape:connector-curvature="0" /></clipPath><clipPath
       clipPathUnits="userSpaceOnUse"
       id="clipPath32"><path
         d="M 350,314 H 18848 V 24860 H 350 V 314"
         id="path30"
         inkscape:connector-curvature="0" /></clipPath><clipPath
       clipPathUnits="userSpaceOnUse"
       id="clipPath44"><path
         d="M 350,314 H 18848 V 24860 H 350 V 314"
         id="path42"
         inkscape:connector-curvature="0" /></clipPath><clipPath
       clipPathUnits="userSpaceOnUse"
       id="clipPath96"><path
         d="M 0,0 H 20399 V 26399 H 0 V 0"
         id="path94"
         inkscape:connector-curvature="0" /></clipPath><clipPath
       clipPathUnits="userSpaceOnUse"
       id="clipPath106"><path
         d="M 0,0 H 20399 V 26399 H 0 V 0"
         id="path104"
         inkscape:connector-curvature="0" /></clipPath><clipPath
       clipPathUnits="userSpaceOnUse"
       id="clipPath114"><path
         d="M 0,0 H 20399 V 26399 H 0 V 0"
         id="path112"
         inkscape:connector-curvature="0" /></clipPath><clipPath
       clipPathUnits="userSpaceOnUse"
       id="clipPath126"><path
         d="M 0,0 H 20399 V 26399 H 0 V 0"
         id="path124"
         inkscape:connector-curvature="0" /></clipPath></defs><sodipodi:namedview
     pagecolor="#ffffff"
     bordercolor="#666666"
     borderopacity="1"
     objecttolerance="10"
     gridtolerance="10"
     guidetolerance="10"
     inkscape:pageopacity="0"
     inkscape:pageshadow="2"
     inkscape:window-width="1920"
     inkscape:window-height="1057"
     id="namedview4"
     showgrid="false"
     inkscape:zoom="0.63211061"
     inkscape:cx="480.80402"
     inkscape:cy="128.1436"
     inkscape:window-x="1912"
     inkscape:window-y="-8"
     inkscape:window-maximized="1"
     inkscape:current-layer="g10" /><g
     id="g10"
     inkscape:groupmode="layer"
     inkscape:label="weld-symbols-3"
     transform="matrix(0.04,0,0,-0.04,-13.368768,694.11491)"><g
       id="g12"><g
         id="g14"
         clip-path="url(#clipPath18)"><path
           d="m 6629,14133 326,-1243 h 4744"
           style="fill:none;stroke:#000000;stroke-width:24;stroke-linecap:round;stroke-linejoin:round;stroke-miterlimit:10;stroke-dasharray:none;stroke-opacity:1"
           id="path20"
           inkscape:connector-curvature="0" /><g
           id="g22"><path
             d="m 6733,14160 -269,600 61,-655 z"
             style="fill:#000000;fill-opacity:1;fill-rule:nonzero;stroke:#000000;stroke-width:25;stroke-linecap:round;stroke-linejoin:miter;stroke-miterlimit:10;stroke-dasharray:none;stroke-opacity:1"
             id="path24"
             inkscape:connector-curvature="0" /></g></g></g><g
       id="g26"><g
         id="g28"
         clip-path="url(#clipPath32)"><text
           transform="matrix(1,0,0,-1,7389,12109)"
           style="font-variant:normal;font-weight:normal;font-size:754.39001465px;font-family:Arial;-inkscape-font-specification:ArialMT;writing-mode:lr-tb;fill:#000000;fill-opacity:1;fill-rule:nonzero;stroke:none"
           id="text36"><tspan
             x="0 419.44083 629.16125 1048.6021"
             y="0"
             sodipodi:role="line"
             id="tspan34">5/16</tspan></text>
</g></g><g
       id="g38"><g
         id="g40"
         clip-path="url(#clipPath44)"><path
           d="m 9144,12890 v -928 l 928,928"
           style="fill:none;stroke:#000000;stroke-width:24;stroke-linecap:round;stroke-linejoin:round;stroke-miterlimit:10;stroke-dasharray:none;stroke-opacity:1"
           id="path46"
           inkscape:connector-curvature="0" /><text
           transform="matrix(1,0,0,-1,10762,16127)"
           style="font-variant:normal;font-weight:normal;font-size:544.8369751px;font-family:Arial;-inkscape-font-specification:ArialMT;writing-mode:lr-tb;fill:#000000;fill-opacity:1;fill-rule:nonzero;stroke:none"
           id="text50"><tspan
             x="0 151.46469 302.92938 454.39404 605.85876 726.81256 847.76636 968.72021 1271.6495 1423.1143 1574.579 1967.9513 2270.8806 2391.8345 2694.7639 2846.2285 3118.647 3421.5764 3724.5056 3996.9243 4117.8779 4269.3428 4390.2964 4693.2261 4996.1553 5147.6201 5450.5493"
             y="0"
             sodipodi:role="line"
             id="tspan48">If fillet weld specified on</tspan></text>
<text
           transform="matrix(1,0,0,-1,10777,15477)"
           style="font-variant:normal;font-weight:normal;font-size:544.8369751px;font-family:Arial;-inkscape-font-specification:ArialMT;writing-mode:lr-tb;fill:#000000;fill-opacity:1;fill-rule:nonzero;stroke:none"
           id="text54"><tspan
             x="0 302.92938 605.85876 757.32343 1060.2528 1211.7175 1484.136 1605.0898 1908.0192 2210.9485 2483.3669 2634.8318 2786.2964 3058.7148 3179.6687 3452.0872 3755.0166 3906.4812 4360.3306 4663.2598 4935.6782 5087.1431 5238.6079 5541.5371"
             y="0"
             sodipodi:role="line"
             id="tspan52">both sides, size must be</tspan></text>
<text
           transform="matrix(1,0,0,-1,10796,14820)"
           style="font-variant:normal;font-weight:normal;font-size:544.8369751px;font-family:Arial;-inkscape-font-specification:ArialMT;writing-mode:lr-tb;fill:#000000;fill-opacity:1;fill-rule:nonzero;stroke:none"
           id="text58"><tspan
             x="0 272.41849 575.3479 878.27722 1150.6958 1271.6495 1423.1143 1544.0681 1846.9974 2149.9268 2301.3916 2604.3208 2907.2502 3058.7148 3361.6443 3664.5737 3816.0383 4118.9678 4270.4326 4542.8511 4663.8047 4966.7339 5269.6636 5542.082"
             y="0"
             sodipodi:role="line"
             id="tspan56">specified on both sides.</tspan></text>
<g
           id="g60"><path
             d="m 9436,14726 -170,-403 30,437 z"
             style="fill:#000000;fill-opacity:1;fill-rule:nonzero;stroke:#000000;stroke-width:25;stroke-linecap:round;stroke-linejoin:miter;stroke-miterlimit:10;stroke-dasharray:none;stroke-opacity:1"
             id="path62"
             inkscape:connector-curvature="0" /></g><path
           d="m 9366,14743 367,1532 h 864"
           style="fill:none;stroke:#000000;stroke-width:24;stroke-linecap:round;stroke-linejoin:round;stroke-miterlimit:10;stroke-dasharray:none;stroke-opacity:1"
           id="path64"
           inkscape:connector-curvature="0" /><text
           transform="matrix(1,0,0,-1,7389,13132)"
           style="font-variant:normal;font-weight:normal;font-size:754.39001465px;font-family:Arial;-inkscape-font-specification:ArialMT;writing-mode:lr-tb;fill:#000000;fill-opacity:1;fill-rule:nonzero;stroke:none"
           id="text68"><tspan
             x="0 419.44083 629.16125 1048.6021"
             y="0"
             sodipodi:role="line"
             id="tspan66">5/16</tspan></text>
<path
           d="m 9144,12890 v 928 l 928,-928"
           style="fill:none;stroke:#000000;stroke-width:24;stroke-linecap:round;stroke-linejoin:round;stroke-miterlimit:10;stroke-dasharray:none;stroke-opacity:1"
           id="path70"
           inkscape:connector-curvature="0" /><text
           transform="matrix(1,0,0,-1,4145,10429)"
           style="font-variant:normal;font-weight:normal;font-size:544.8369751px;font-family:Arial;-inkscape-font-specification:ArialMT;writing-mode:lr-tb;fill:#000000;fill-opacity:1;fill-rule:nonzero;stroke:none"
           id="text74"><tspan
             x="0 151.46469 302.92938 454.39404 757.32343 1060.2528 1211.7175 1514.6469 1817.5762 2120.5056 2241.4595 2392.9241 2513.8779 2816.8074 3119.7366 3422.666 3543.6199 3695.0845 3816.0383 4118.9678 4270.4326 4573.3618 4754.7925 5208.6416 5511.5713 5663.0356 5783.9897 6086.9189"
             y="0"
             sodipodi:role="line"
             id="tspan72">If no additional information</tspan></text>
<text
           transform="matrix(1,0,0,-1,4217,9772)"
           style="font-variant:normal;font-weight:normal;font-size:544.8369751px;font-family:Arial;-inkscape-font-specification:ArialMT;writing-mode:lr-tb;fill:#000000;fill-opacity:1;fill-rule:nonzero;stroke:none"
           id="text78"><tspan
             x="0 120.95381 393.37231 544.83698 817.25549 1120.1848 1423.1143 1695.5327 1816.4866 1967.9513 2088.905 2391.8345 2694.7639 2846.2285 2997.6931 3149.158 3452.0872 3573.041 3693.9949 3845.4595 3966.4133 4238.832 4390.2964 4693.2261 5147.0752 5268.0288 5419.4937 5570.9585 5873.8877 6176.8169"
             y="0"
             sodipodi:role="line"
             id="tspan76">is specified, tail is omitted.</tspan></text>
<g
           id="g80"><path
             d="m 11953,12183 185,396 -47,-435 z"
             style="fill:#000000;fill-opacity:1;fill-rule:nonzero;stroke:#000000;stroke-width:25;stroke-linecap:round;stroke-linejoin:miter;stroke-miterlimit:10;stroke-dasharray:none;stroke-opacity:1"
             id="path82"
             inkscape:connector-curvature="0" /></g><path
           d="m 12022,12163 -444,-1587 h -864"
           style="fill:none;stroke:#000000;stroke-width:24;stroke-linecap:round;stroke-linejoin:round;stroke-miterlimit:10;stroke-dasharray:none;stroke-opacity:1"
           id="path84"
           inkscape:connector-curvature="0" /><text
           transform="matrix(1,0,0,-1,10710,13123)"
           style="font-variant:normal;font-weight:normal;font-size:754.39001465px;font-family:Arial;-inkscape-font-specification:ArialMT;writing-mode:lr-tb;fill:#000000;fill-opacity:1;fill-rule:nonzero;stroke:none"
           id="text88"><tspan
             x="0 419.44083"
             y="0"
             sodipodi:role="line"
             id="tspan86">12</tspan></text>
</g></g><g
       id="g100"><g
         id="g102"
         clip-path="url(#clipPath106)" /></g></g></svg>