<?xml version="1.0" encoding="UTF-8" standalone="no"?>
<!-- Created with Inkscape (http://www.inkscape.org/) -->

<svg
   xmlns:dc="http://purl.org/dc/elements/1.1/"
   xmlns:cc="http://creativecommons.org/ns#"
   xmlns:rdf="http://www.w3.org/1999/02/22-rdf-syntax-ns#"
   xmlns:svg="http://www.w3.org/2000/svg"
   xmlns="http://www.w3.org/2000/svg"
   xmlns:sodipodi="http://sodipodi.sourceforge.net/DTD/sodipodi-0.dtd"
   xmlns:inkscape="http://www.inkscape.org/namespaces/inkscape"
   version="1.1"
   id="svg2"
   xml:space="preserve"
   width="741.12701"
   height="504.92566"
   viewBox="0 0 741.12701 504.92566"
   sodipodi:docname="weld-symbols-1.svg"
   inkscape:version="0.92.4 (5da689c313, 2019-01-14)"><metadata
     id="metadata8"><rdf:RDF><cc:Work
         rdf:about=""><dc:format>image/svg+xml</dc:format><dc:type
           rdf:resource="http://purl.org/dc/dcmitype/StillImage" /><dc:title></dc:title></cc:Work></rdf:RDF></metadata><defs
     id="defs6"><clipPath
       clipPathUnits="userSpaceOnUse"
       id="clipPath18"><path
         d="M 350,314 H 18848 V 24860 H 350 V 314"
         id="path16"
         inkscape:connector-curvature="0" /></clipPath><clipPath
       clipPathUnits="userSpaceOnUse"
       id="clipPath34"><path
         d="M 350,314 H 18848 V 24860 H 350 V 314"
         id="path32"
         inkscape:connector-curvature="0" /></clipPath><clipPath
       clipPathUnits="userSpaceOnUse"
       id="clipPath46"><path
         d="M 350,314 H 18848 V 24860 H 350 V 314"
         id="path44"
         inkscape:connector-curvature="0" /></clipPath><clipPath
       clipPathUnits="userSpaceOnUse"
       id="clipPath172"><path
         d="M 0,0 H 20399 V 26399 H 0 V 0"
         id="path170"
         inkscape:connector-curvature="0" /></clipPath><clipPath
       clipPathUnits="userSpaceOnUse"
       id="clipPath182"><path
         d="M 0,0 H 20399 V 26399 H 0 V 0"
         id="path180"
         inkscape:connector-curvature="0" /></clipPath><clipPath
       clipPathUnits="userSpaceOnUse"
       id="clipPath190"><path
         d="M 0,0 H 20399 V 26399 H 0 V 0"
         id="path188"
         inkscape:connector-curvature="0" /></clipPath><clipPath
       clipPathUnits="userSpaceOnUse"
       id="clipPath202"><path
         d="M 0,0 H 20399 V 26399 H 0 V 0"
         id="path200"
         inkscape:connector-curvature="0" /></clipPath></defs><sodipodi:namedview
     pagecolor="#ffffff"
     bordercolor="#666666"
     borderopacity="1"
     objecttolerance="10"
     gridtolerance="10"
     guidetolerance="10"
     inkscape:pageopacity="0"
     inkscape:pageshadow="2"
     inkscape:window-width="1920"
     inkscape:window-height="1057"
     id="namedview4"
     showgrid="false"
     inkscape:zoom="0.63211061"
     inkscape:cx="429.01224"
     inkscape:cy="252.25086"
     inkscape:window-x="1912"
     inkscape:window-y="-8"
     inkscape:window-maximized="1"
     inkscape:current-layer="g10" /><g
     id="g10"
     inkscape:groupmode="layer"
     inkscape:label="weld-symbols-1"
     transform="matrix(0.04,0,0,-0.04,-13.392913,774.85771)"><g
       id="g12"><g
         id="g14"
         clip-path="url(#clipPath18)"><path
           d="m 12252,12120 -326,1243 H 7183"
           style="fill:none;stroke:#000000;stroke-width:24;stroke-linecap:round;stroke-linejoin:round;stroke-miterlimit:10;stroke-dasharray:none;stroke-opacity:1"
           id="path20"
           inkscape:connector-curvature="0" /><g
           id="g22"><path
             d="m 12148,12093 269,-600 -60,654 z"
             style="fill:#000000;fill-opacity:1;fill-rule:nonzero;stroke:#000000;stroke-width:25;stroke-linecap:round;stroke-linejoin:miter;stroke-miterlimit:10;stroke-dasharray:none;stroke-opacity:1"
             id="path24"
             inkscape:connector-curvature="0" /></g><path
           d="m 6544,12724 639,639 -639,639"
           style="fill:none;stroke:#000000;stroke-width:24;stroke-linecap:round;stroke-linejoin:round;stroke-miterlimit:10;stroke-dasharray:none;stroke-opacity:1"
           id="path26"
           inkscape:connector-curvature="0" /></g></g><g
       id="g28"><g
         id="g30"
         clip-path="url(#clipPath34)"><text
           transform="matrix(1,0,0,-1,7314,13595)"
           style="font-variant:normal;font-weight:normal;font-size:754.39001465px;font-family:Arial;-inkscape-font-specification:ArialMT;writing-mode:lr-tb;fill:#000000;fill-opacity:1;fill-rule:nonzero;stroke:none"
           id="text38"><tspan
             x="0"
             y="0"
             id="tspan36">S</tspan></text>
</g></g><g
       id="g40"><g
         id="g42"
         clip-path="url(#clipPath46)"><text
           transform="matrix(1,0,0,-1,6061,13107)"
           style="font-variant:normal;font-weight:normal;font-size:754.39001465px;font-family:Arial;-inkscape-font-specification:ArialMT;writing-mode:lr-tb;fill:#000000;fill-opacity:1;fill-rule:nonzero;stroke:none"
           id="text50"><tspan
             x="0"
             y="0"
             id="tspan48">T</tspan></text>
<text
           transform="matrix(1,0,0,-1,10424,13604)"
           style="font-variant:normal;font-weight:normal;font-size:754.39001465px;font-family:Arial;-inkscape-font-specification:ArialMT;writing-mode:lr-tb;fill:#000000;fill-opacity:1;fill-rule:nonzero;stroke:none"
           id="text54"><tspan
             x="0"
             y="0"
             id="tspan52">L</tspan></text>
<text
           transform="matrix(1,0,0,-1,9931,18189)"
           style="font-variant:normal;font-weight:normal;font-size:544.8369751px;font-family:Arial;-inkscape-font-specification:ArialMT;writing-mode:lr-tb;fill:#000000;fill-opacity:1;fill-rule:nonzero;stroke:none"
           id="text58"><tspan
             x="0 514.32611 817.25549 938.20929 1241.1387 1392.6034 1665.0219 1785.9757 2058.3943 2361.3235 2512.7883 2633.7419 2936.6714 3088.1362 3209.0898 3512.0193 3784.4377 4087.3672 4390.2964 4662.7148 4814.1797 4965.6445 5298.54 5601.4692 5782.8999 5934.3647 6085.8291 6206.7832 6327.7368 6448.6909 6751.6201"
             y="0"
             sodipodi:role="line"
             id="tspan56">Weld size in inches. For fillet</tspan></text>
<text
           transform="matrix(1,0,0,-1,9936,17539)"
           style="font-variant:normal;font-weight:normal;font-size:544.8369751px;font-family:Arial;-inkscape-font-specification:ArialMT;writing-mode:lr-tb;fill:#000000;fill-opacity:1;fill-rule:nonzero;stroke:none"
           id="text62"><tspan
             x="0 393.37231 696.3017 817.25549 1120.1848 1392.6034 1544.0681 1695.5327 1967.9513 2088.905 2361.3235 2664.2529 2815.7175 2936.6714 3209.0898 3360.5547 3481.5085 3784.4377 4087.3672 4208.3208 4480.7393 4783.6689 4935.1338 5238.063 5540.9922 5692.457 5995.3862 6298.3159 6449.7803 6601.2451 6904.1743"
             y="0"
             sodipodi:role="line"
             id="tspan60">welds, size is indicated on the</tspan></text>
<text
           transform="matrix(1,0,0,-1,9921,16889)"
           style="font-variant:normal;font-weight:normal;font-size:544.8369751px;font-family:Arial;-inkscape-font-specification:ArialMT;writing-mode:lr-tb;fill:#000000;fill-opacity:1;fill-rule:nonzero;stroke:none"
           id="text66"><tspan
             x="0 272.41849 575.3479 1029.1971 1332.1265 1483.5912 1756.0096 1876.9635 2179.8928 2482.8223 2634.2869 2937.2163 3209.6348 3361.0994 3512.5642 3815.4934 4118.4229 4269.8877 4663.2598 4966.1895 5087.1431 5390.0723 5541.5371 5813.9556 6086.374 6540.2231 6843.1528 7146.082 7267.0361"
             y="0"
             sodipodi:role="line"
             id="tspan64">same side as the weld symbol.</tspan></text>
<g
           id="g68"><path
             d="m 7931,14709 -185,-397 46,436 z"
             style="fill:#000000;fill-opacity:1;fill-rule:nonzero;stroke:#000000;stroke-width:25;stroke-linecap:butt;stroke-linejoin:miter;stroke-miterlimit:10;stroke-dasharray:none;stroke-opacity:1"
             id="path70"
             inkscape:connector-curvature="0" /></g><path
           d="m 7861,14728 997,3605 h 864"
           style="fill:none;stroke:#000000;stroke-width:24;stroke-linecap:round;stroke-linejoin:round;stroke-miterlimit:10;stroke-dasharray:none;stroke-opacity:1"
           id="path72"
           inkscape:connector-curvature="0" /><text
           transform="matrix(1,0,0,-1,12253,15214)"
           style="font-variant:normal;font-weight:normal;font-size:544.8369751px;font-family:Arial;-inkscape-font-specification:ArialMT;writing-mode:lr-tb;fill:#000000;fill-opacity:1;fill-rule:nonzero;stroke:none"
           id="text76"><tspan
             x="0 302.92938 605.85876 908.78809 1211.7175 1363.1821 1666.1116 1817.5762 2120.5056 2271.9702 2423.4351 2816.8074 3119.7366 3240.6904 3543.6199 3695.0845 3816.0383 4118.9678 4270.4326 4391.3862 4694.3154 4966.7339 5269.6636 5572.5928 5845.0112"
             y="0"
             sodipodi:role="line"
             id="tspan74">Length of weld in inches.</tspan></text>
<text
           transform="matrix(1,0,0,-1,12252,14558)"
           style="font-variant:normal;font-weight:normal;font-size:544.8369751px;font-family:Arial;-inkscape-font-specification:ArialMT;writing-mode:lr-tb;fill:#000000;fill-opacity:1;fill-rule:nonzero;stroke:none"
           id="text80"><tspan
             x="0 453.84921 756.77856 1029.1971 1180.6617 1483.5912 1786.5205 1937.9852 2058.939 2361.8684 2513.333 2664.7979 2816.2625 3119.1919 3270.6565 3422.1211 3573.5859 3694.5398 3846.0044 3997.469 4118.4229 4421.3521 4724.2817 5027.2109 5178.6758"
             y="0"
             sodipodi:role="line"
             id="tspan78">May be left off if length</tspan></text>
<text
           transform="matrix(1,0,0,-1,12256,13901)"
           style="font-variant:normal;font-weight:normal;font-size:544.8369751px;font-family:Arial;-inkscape-font-specification:ArialMT;writing-mode:lr-tb;fill:#000000;fill-opacity:1;fill-rule:nonzero;stroke:none"
           id="text84"><tspan
             x="0 120.95381 393.37231 544.83698 817.25549 938.20929 1241.1387 1544.0681 1725.4988 1876.9635 2028.4281 2209.8589 2512.7883 2966.6375 3118.1021 3421.0315 3602.4622 3905.3916 4298.7642 4419.7178 4722.647 5025.5767"
             y="0"
             sodipodi:role="line"
             id="tspan82">is clear from drawing.</tspan></text>
<g
           id="g86"><path
             d="m 11028,14569 -204,-388 67,433 z"
             style="fill:#000000;fill-opacity:1;fill-rule:nonzero;stroke:#000000;stroke-width:25;stroke-linecap:round;stroke-linejoin:miter;stroke-miterlimit:10;stroke-dasharray:none;stroke-opacity:1"
             id="path88"
             inkscape:connector-curvature="0" /></g><path
           d="m 10959,14592 253,767 h 864"
           style="fill:none;stroke:#000000;stroke-width:24;stroke-linecap:round;stroke-linejoin:round;stroke-miterlimit:10;stroke-dasharray:none;stroke-opacity:1"
           id="path90"
           inkscape:connector-curvature="0" /><text
           transform="matrix(1,0,0,-1,8179,10204)"
           style="font-variant:normal;font-weight:normal;font-size:544.8369751px;font-family:Arial;-inkscape-font-specification:ArialMT;writing-mode:lr-tb;fill:#000000;fill-opacity:1;fill-rule:nonzero;stroke:none"
           id="text94"><tspan
             x="0 332.89542 453.84921 574.80304 695.75684 998.68622 1150.1509 1301.6156 1694.9879 1997.9172 2118.8711 2421.8005 2573.2651 2845.6836 3118.1021 3571.9514 3874.8809 4177.8101 4298.7642"
             y="0"
             sodipodi:role="line"
             id="tspan92">Fillet weld symbol.</tspan></text>
<text
           transform="matrix(1,0,0,-1,8198,9547)"
           style="font-variant:normal;font-weight:normal;font-size:544.8369751px;font-family:Arial;-inkscape-font-specification:ArialMT;writing-mode:lr-tb;fill:#000000;fill-opacity:1;fill-rule:nonzero;stroke:none"
           id="text98"><tspan
             x="0 423.88318 726.81256 878.27722 1029.7419 1332.6713 1635.6007 1787.0653 1938.53 2331.9023 2634.8318 2755.7856 3058.7148 3210.1797 3331.1333 3603.552 3755.0166 4057.946 4360.8755 4512.3398 4663.8047 4966.7339 5269.6636 5421.1279 5724.0576 5875.522 6178.4517 6481.3809 6662.8115 6814.2764 7086.6948 7207.6484 7510.5781 7813.5073 7964.9722 8267.9014 8419.3662 8570.8311 8722.2959 9025.2246"
             y="0"
             sodipodi:role="line"
             id="tspan96">On top, weld is on the other side of the</tspan></text>
<text
           transform="matrix(1,0,0,-1,8224,8890)"
           style="font-variant:normal;font-weight:normal;font-size:544.8369751px;font-family:Arial;-inkscape-font-specification:ArialMT;writing-mode:lr-tb;fill:#000000;fill-opacity:1;fill-rule:nonzero;stroke:none"
           id="text102"><tspan
             x="0 120.95381 423.88318 544.83698 847.76636 999.23108 1150.6958 1302.1604 1483.5912 1786.5205 2240.3696 2391.8345 2543.2991 2846.2285 3149.158 3300.6226 3603.552 3784.9827 3966.4133 4269.3428 4662.7148"
             y="0"
             sodipodi:role="line"
             id="tspan100">joint from the arrow.</tspan></text>
<text
           transform="matrix(1,0,0,-1,8198,8234)"
           style="font-variant:normal;font-weight:normal;font-size:544.8369751px;font-family:Arial;-inkscape-font-specification:ArialMT;writing-mode:lr-tb;fill:#000000;fill-opacity:1;fill-rule:nonzero;stroke:none"
           id="text106"><tspan
             x="0 423.88318 726.81256 878.27722 1181.2067 1484.136 1635.6007 1787.0653 2089.9946 2543.844 2695.3086 2846.7734 3240.1458 3543.075 3664.0288 3966.9583 4118.4229 4239.3765 4511.7954 4663.2598 4966.1895 5269.1187 5420.5835 5572.0479 5874.9775 6177.9067 6329.3716 6601.79 6904.7192 7358.5684 7661.498 7812.9624 8085.3809 8206.335 8509.2646 8812.1934"
             y="0"
             sodipodi:role="line"
             id="tspan104">On bottom, weld is on the same side.</tspan></text>
<text
           transform="matrix(1,0,0,-1,8211,7577)"
           style="font-variant:normal;font-weight:normal;font-size:544.8369751px;font-family:Arial;-inkscape-font-specification:ArialMT;writing-mode:lr-tb;fill:#000000;fill-opacity:1;fill-rule:nonzero;stroke:none"
           id="text110"><tspan
             x="0 332.89542 635.82477 938.75415 1090.2189 1393.1482 1696.0776 1999.007 2150.4717 2453.4011 2756.3303 2907.7952 3059.2598 3362.1892 3816.0383 3967.5029 4421.3521 4724.2817 4996.7002 5148.165 5451.0942 5754.0234 5905.4883 6177.9067 6480.8359 6783.7656 7056.1841 7177.1377 7328.6025 7449.5562 7752.4858 8055.415 8206.8799 8358.3447 8661.2734 8964.2031 9267.1328 9418.5977 9721.5264 10024.456 10205.887"
             y="0"
             sodipodi:role="line"
             id="tspan108">Top and bottom may be specified together.</tspan></text>
<g
           id="g112"><path
             d="m 8572,12755 290,327 -168,-404 z"
             style="fill:#000000;fill-opacity:1;fill-rule:nonzero;stroke:#000000;stroke-width:25;stroke-linecap:round;stroke-linejoin:miter;stroke-miterlimit:10;stroke-dasharray:none;stroke-opacity:1"
             id="path114"
             inkscape:connector-curvature="0" /></g><path
           d="M 8633,12716 7144,10342 h 864"
           style="fill:none;stroke:#000000;stroke-width:24;stroke-linecap:round;stroke-linejoin:round;stroke-miterlimit:10;stroke-dasharray:none;stroke-opacity:1"
           id="path116"
           inkscape:connector-curvature="0" /><text
           transform="matrix(1,0,0,-1,1334,15313)"
           style="font-variant:normal;font-weight:normal;font-size:544.8369751px;font-family:Arial;-inkscape-font-specification:ArialMT;writing-mode:lr-tb;fill:#000000;fill-opacity:1;fill-rule:nonzero;stroke:none"
           id="text120"><tspan
             x="0 363.40628 666.33563 969.26501 1090.2189 1241.6835 1362.6373 1665.5667 1968.4961 2271.4255"
             y="0"
             sodipodi:role="line"
             id="tspan118">Additional</tspan></text>
<text
           transform="matrix(1,0,0,-1,1031,14657)"
           style="font-variant:normal;font-weight:normal;font-size:544.8369751px;font-family:Arial;-inkscape-font-specification:ArialMT;writing-mode:lr-tb;fill:#000000;fill-opacity:1;fill-rule:nonzero;stroke:none"
           id="text124"><tspan
             x="0 120.95381 423.88318 575.3479 878.27722 1059.708 1513.5571 1816.4866 1967.9513 2088.905 2391.8345"
             y="0"
             sodipodi:role="line"
             id="tspan122">information</tspan></text>
<g
           id="g126"><path
             d="m 5619,14307 172,-403 -293,325 z"
             style="fill:#000000;fill-opacity:1;fill-rule:nonzero;stroke:#000000;stroke-width:25;stroke-linecap:round;stroke-linejoin:miter;stroke-miterlimit:10;stroke-dasharray:none;stroke-opacity:1"
             id="path128"
             inkscape:connector-curvature="0" /></g><path
           d="m 5558,14268 -789,1237 h -864"
           style="fill:none;stroke:#000000;stroke-width:24;stroke-linecap:round;stroke-linejoin:round;stroke-miterlimit:10;stroke-dasharray:none;stroke-opacity:1"
           id="path130"
           inkscape:connector-curvature="0" /><text
           transform="matrix(1,0,0,-1,1796,11615)"
           style="font-variant:normal;font-weight:normal;font-size:544.8369751px;font-family:Arial;-inkscape-font-specification:ArialMT;writing-mode:lr-tb;fill:#000000;fill-opacity:1;fill-rule:nonzero;stroke:none"
           id="text134"><tspan
             x="0 332.89542 635.82477 756.77856 877.73242 1029.1971 1210.6278 1513.5571 1967.4064 2088.3601 2239.825 2391.2896 2694.219 2997.1484 3148.613 3269.5669 3421.0315 3572.4961 3875.4255"
             y="0"
             sodipodi:role="line"
             id="tspan132">Tail (omitted if no</tspan></text>
<text
           transform="matrix(1,0,0,-1,613,10958)"
           style="font-variant:normal;font-weight:normal;font-size:544.8369751px;font-family:Arial;-inkscape-font-specification:ArialMT;writing-mode:lr-tb;fill:#000000;fill-opacity:1;fill-rule:nonzero;stroke:none"
           id="text138"><tspan
             x="0 302.92938 605.85876 908.78809 1029.7419 1181.2067 1302.1604 1605.0898 1908.0192 2210.9485 2331.9023 2483.3669 2604.3208 2907.2502 3058.7148 3361.6443 3543.075 3996.9243 4299.8535 4451.3184 4572.272 4875.2017 5178.1309"
             y="0"
             sodipodi:role="line"
             id="tspan136">additional information)</tspan></text>
<g
           id="g140"><path
             d="m 6832,12296 -30,437 170,-403 z"
             style="fill:#000000;fill-opacity:1;fill-rule:nonzero;stroke:#000000;stroke-width:25;stroke-linecap:round;stroke-linejoin:miter;stroke-miterlimit:10;stroke-dasharray:none;stroke-opacity:1"
             id="path142"
             inkscape:connector-curvature="0" /></g><path
           d="m 6902,12313 132,-554 h -864"
           style="fill:none;stroke:#000000;stroke-width:24;stroke-linecap:round;stroke-linejoin:round;stroke-miterlimit:10;stroke-dasharray:none;stroke-opacity:1"
           id="path144"
           inkscape:connector-curvature="0" /><path
           d="m 9036,13363 v 927 l 928,-927"
           style="fill:none;stroke:#000000;stroke-width:24;stroke-linecap:round;stroke-linejoin:round;stroke-miterlimit:10;stroke-dasharray:none;stroke-opacity:1"
           id="path146"
           inkscape:connector-curvature="0" /><text
           transform="matrix(1,0,0,-1,14330,12565)"
           style="font-variant:normal;font-weight:normal;font-size:544.8369751px;font-family:Arial;-inkscape-font-specification:ArialMT;writing-mode:lr-tb;fill:#000000;fill-opacity:1;fill-rule:nonzero;stroke:none"
           id="text150"><tspan
             x="0 363.40628 544.83698 726.2677 1029.1971 1422.5695 1574.0341 1846.4526 2149.3821 2452.3113 2755.2407 3058.1702 3330.5886 3482.0532"
             y="0"
             sodipodi:role="line"
             id="tspan148">Arrow connects</tspan></text>
<text
           transform="matrix(1,0,0,-1,14295,11908)"
           style="font-variant:normal;font-weight:normal;font-size:544.8369751px;font-family:Arial;-inkscape-font-specification:ArialMT;writing-mode:lr-tb;fill:#000000;fill-opacity:1;fill-rule:nonzero;stroke:none"
           id="text154"><tspan
             x="0 181.43073 484.36011 635.82477 938.75415 1120.1848 1423.1143 1726.0436 1998.4622 2301.3916 2452.8562 2573.8101 2694.7639 2997.6931 3300.6226 3452.0872 3603.552"
             y="0"
             sodipodi:role="line"
             id="tspan152">reference line to</tspan></text>
<text
           transform="matrix(1,0,0,-1,14310,11251)"
           style="font-variant:normal;font-weight:normal;font-size:544.8369751px;font-family:Arial;-inkscape-font-specification:ArialMT;writing-mode:lr-tb;fill:#000000;fill-opacity:1;fill-rule:nonzero;stroke:none"
           id="text158"><tspan
             x="0 302.92938 484.36011 665.79083 968.72021 1362.0925 1513.5571 1785.9757 1906.9294 2209.8589 2512.7883 2664.2529 2967.1824 3118.647 3270.1116 3391.0654 3693.9949 3814.9487 4117.8779 4269.3428"
             y="0"
             sodipodi:role="line"
             id="tspan156">arrow side of joint.</tspan></text>
<g
           id="g160"><path
             d="m 12864,12458 -426,-105 369,237 z"
             style="fill:#000000;fill-opacity:1;fill-rule:nonzero;stroke:#000000;stroke-width:25;stroke-linecap:round;stroke-linejoin:miter;stroke-miterlimit:10;stroke-dasharray:none;stroke-opacity:1"
             id="path162"
             inkscape:connector-curvature="0" /></g><path
           d="m 12835,12524 415,178 h 864"
           style="fill:none;stroke:#000000;stroke-width:24;stroke-linecap:round;stroke-linejoin:round;stroke-miterlimit:10;stroke-dasharray:none;stroke-opacity:1"
           id="path164"
           inkscape:connector-curvature="0" /></g></g><g
       id="g176"><g
         id="g178"
         clip-path="url(#clipPath182)" /></g></g></svg>