<?xml version="1.0" encoding="UTF-8" standalone="no"?>
<!-- Created with Inkscape (http://www.inkscape.org/) -->

<svg
   xmlns:dc="http://purl.org/dc/elements/1.1/"
   xmlns:cc="http://creativecommons.org/ns#"
   xmlns:rdf="http://www.w3.org/1999/02/22-rdf-syntax-ns#"
   xmlns:svg="http://www.w3.org/2000/svg"
   xmlns="http://www.w3.org/2000/svg"
   xmlns:sodipodi="http://sodipodi.sourceforge.net/DTD/sodipodi-0.dtd"
   xmlns:inkscape="http://www.inkscape.org/namespaces/inkscape"
   version="1.1"
   id="svg2"
   xml:space="preserve"
   width="741.12207"
   height="603.04895"
   viewBox="0 0 741.12207 603.04895"
   sodipodi:docname="guide-side.svg"
   inkscape:version="0.92.4 (5da689c313, 2019-01-14)"><metadata
     id="metadata8"><rdf:RDF><cc:Work
         rdf:about=""><dc:format>image/svg+xml</dc:format><dc:type
           rdf:resource="http://purl.org/dc/dcmitype/StillImage" /><dc:title></dc:title></cc:Work></rdf:RDF></metadata><defs
     id="defs6"><clipPath
       clipPathUnits="userSpaceOnUse"
       id="clipPath18"><path
         d="M 350,314 H 18848 V 24860 H 350 V 314"
         id="path16"
         inkscape:connector-curvature="0" /></clipPath><clipPath
       clipPathUnits="userSpaceOnUse"
       id="clipPath38"><path
         d="M 350,314 H 18848 V 24860 H 350 V 314"
         id="path36"
         inkscape:connector-curvature="0" /></clipPath><clipPath
       clipPathUnits="userSpaceOnUse"
       id="clipPath50"><path
         d="M 350,314 H 18848 V 24860 H 350 V 314"
         id="path48"
         inkscape:connector-curvature="0" /></clipPath><clipPath
       clipPathUnits="userSpaceOnUse"
       id="clipPath94"><path
         d="M 0,0 H 20399 V 26399 H 0 V 0"
         id="path92"
         inkscape:connector-curvature="0" /></clipPath><clipPath
       clipPathUnits="userSpaceOnUse"
       id="clipPath104"><path
         d="M 0,0 H 20399 V 26399 H 0 V 0"
         id="path102"
         inkscape:connector-curvature="0" /></clipPath><clipPath
       clipPathUnits="userSpaceOnUse"
       id="clipPath112"><path
         d="M 0,0 H 20399 V 26399 H 0 V 0"
         id="path110"
         inkscape:connector-curvature="0" /></clipPath><clipPath
       clipPathUnits="userSpaceOnUse"
       id="clipPath124"><path
         d="M 0,0 H 20399 V 26399 H 0 V 0"
         id="path122"
         inkscape:connector-curvature="0" /></clipPath></defs><sodipodi:namedview
     pagecolor="#ffffff"
     bordercolor="#666666"
     borderopacity="1"
     objecttolerance="10"
     gridtolerance="10"
     guidetolerance="10"
     inkscape:pageopacity="0"
     inkscape:pageshadow="2"
     inkscape:window-width="1920"
     inkscape:window-height="1057"
     id="namedview4"
     showgrid="false"
     inkscape:zoom="0.63211061"
     inkscape:cx="242.577"
     inkscape:cy="320.16113"
     inkscape:window-x="-8"
     inkscape:window-y="-8"
     inkscape:window-maximized="1"
     inkscape:current-layer="g10" /><g
     id="g10"
     inkscape:groupmode="layer"
     inkscape:label="guide-side"
     transform="matrix(0.04,0,0,-0.04,-13.39542,806.53422)"><g
       id="g12"><g
         id="g14"
         clip-path="url(#clipPath18)"><path
           d="M 4511,17448 H 15089"
           style="fill:none;stroke:#000000;stroke-width:24;stroke-linecap:round;stroke-linejoin:round;stroke-miterlimit:10;stroke-dasharray:none;stroke-opacity:1"
           id="path20"
           inkscape:connector-curvature="0" /><path
           d="M 4511,16998 H 15089"
           style="fill:none;stroke:#000000;stroke-width:24;stroke-linecap:round;stroke-linejoin:round;stroke-miterlimit:10;stroke-dasharray:none;stroke-opacity:1"
           id="path22"
           inkscape:connector-curvature="0" /><path
           d="M 4511,9498 H 15089"
           style="fill:none;stroke:#000000;stroke-width:24;stroke-linecap:round;stroke-linejoin:round;stroke-miterlimit:10;stroke-dasharray:none;stroke-opacity:1"
           id="path24"
           inkscape:connector-curvature="0" /><path
           d="M 4511,9048 H 15089"
           style="fill:none;stroke:#000000;stroke-width:24;stroke-linecap:round;stroke-linejoin:round;stroke-miterlimit:10;stroke-dasharray:none;stroke-opacity:1"
           id="path26"
           inkscape:connector-curvature="0" /><path
           d="m 4511,18098 v -4550 l -412,-150 824,-300 -412,-150 V 8397"
           style="fill:none;stroke:#000000;stroke-width:24;stroke-linecap:round;stroke-linejoin:round;stroke-miterlimit:10;stroke-dasharray:none;stroke-opacity:1"
           id="path28"
           inkscape:connector-curvature="0" /><path
           d="m 15089,18098 v -4550 l 412,-150 -824,-300 412,-150 V 8397"
           style="fill:none;stroke:#000000;stroke-width:24;stroke-linecap:round;stroke-linejoin:round;stroke-miterlimit:10;stroke-dasharray:none;stroke-opacity:1"
           id="path30"
           inkscape:connector-curvature="0" /></g></g><g
       id="g32"><g
         id="g34"
         clip-path="url(#clipPath38)"><text
           transform="matrix(1,0,0,-1,7905,18934)"
           style="font-variant:normal;font-weight:normal;font-size:544.8369751px;font-family:Arial;-inkscape-font-specification:ArialMT;writing-mode:lr-tb;fill:#000000;fill-opacity:1;fill-rule:nonzero;stroke:none"
           id="text42"><tspan
             x="0 363.40628 666.33563 787.28949 908.24329 1211.1726 1362.6373 1483.5912 1604.5449 1907.4744 2210.4038 2361.8684 2543.2991 2846.2285 3149.158 3330.5886 3633.5181 3905.9365 4208.8657 4511.7954 4663.2598 4784.2139 5087.1431"
             y="0"
             sodipodi:role="line"
             id="tspan40">Solid line representing</tspan></text>
</g></g><g
       id="g44"><g
         id="g46"
         clip-path="url(#clipPath50)"><text
           transform="matrix(1,0,0,-1,7920,18278)"
           style="font-variant:normal;font-weight:normal;font-size:544.8369751px;font-family:Arial;-inkscape-font-specification:ArialMT;writing-mode:lr-tb;fill:#000000;fill-opacity:1;fill-rule:nonzero;stroke:none"
           id="text54"><tspan
             x="0 151.46469 454.39404 757.32343 908.78809 1211.7175 1363.1821 1514.6469 1666.1116 1969.0409 2271.9702 2423.4351 2574.8997 2877.8291 3180.7583 3332.2231 3483.6877 3604.6416 3907.571 4210.5005 4513.4297"
             y="0"
             sodipodi:role="line"
             id="tspan52">top of the top flange</tspan></text>
<g
           id="g56"><path
             d="m 6360,17812 -243,-364 112,423 z"
             style="fill:#000000;fill-opacity:1;fill-rule:nonzero;stroke:#000000;stroke-width:25;stroke-linecap:butt;stroke-linejoin:miter;stroke-miterlimit:10;stroke-dasharray:none;stroke-opacity:1"
             id="path58"
             inkscape:connector-curvature="0" /></g><path
           d="m 6294,17842 556,1237 h 864"
           style="fill:none;stroke:#000000;stroke-width:24;stroke-linecap:round;stroke-linejoin:round;stroke-miterlimit:10;stroke-dasharray:none;stroke-opacity:1"
           id="path60"
           inkscape:connector-curvature="0" /><text
           transform="matrix(1,0,0,-1,8487,15489)"
           style="font-variant:normal;font-weight:normal;font-size:544.8369751px;font-family:Arial;-inkscape-font-specification:ArialMT;writing-mode:lr-tb;fill:#000000;fill-opacity:1;fill-rule:nonzero;stroke:none"
           id="text64"><tspan
             x="0 363.40628 666.33563 787.28949 908.24329 1211.1726 1362.6373 1483.5912 1604.5449 1907.4744 2210.4038 2361.8684 2543.2991 2846.2285 3149.158 3330.5886 3633.5181 3905.9365 4208.8657 4511.7954 4663.2598 4784.2139 5087.1431"
             y="0"
             sodipodi:role="line"
             id="tspan62">Solid line representing</tspan></text>
<text
           transform="matrix(1,0,0,-1,8476,14833)"
           style="font-variant:normal;font-weight:normal;font-size:544.8369751px;font-family:Arial;-inkscape-font-specification:ArialMT;writing-mode:lr-tb;fill:#000000;fill-opacity:1;fill-rule:nonzero;stroke:none"
           id="text68"><tspan
             x="0 302.92938 605.85876 757.32343 908.78809 1211.7175 1665.5667 1817.0314 2119.9607 2271.4255 2422.8901 2574.3547 2877.2842 3180.2136 3331.6782 3483.1428 3786.0723 4089.0017 4240.4663 4391.9312 4512.8848 4815.8145 5118.7437 5421.6729"
             y="0"
             sodipodi:role="line"
             id="tspan66">bottom of the top flange</tspan></text>
<g
           id="g70"><path
             d="m 6969,16571 -98,427 231,-372 z"
             style="fill:#000000;fill-opacity:1;fill-rule:nonzero;stroke:#000000;stroke-width:25;stroke-linecap:round;stroke-linejoin:miter;stroke-miterlimit:10;stroke-dasharray:none;stroke-opacity:1"
             id="path72"
             inkscape:connector-curvature="0" /></g><path
           d="m 7036,16598 396,-964 h 864"
           style="fill:none;stroke:#000000;stroke-width:24;stroke-linecap:round;stroke-linejoin:round;stroke-miterlimit:10;stroke-dasharray:none;stroke-opacity:1"
           id="path74"
           inkscape:connector-curvature="0" /><text
           transform="matrix(1,0,0,-1,4425,6330)"
           style="font-variant:normal;font-weight:normal;font-size:670.56896973px;font-family:Arial;-inkscape-font-specification:ArialMT;writing-mode:lr-tb;fill:#000000;fill-opacity:1;fill-rule:nonzero;stroke:none"
           id="text78"><tspan
             x="0"
             y="0"
             id="tspan76">3</tspan></text>
<path
           d="m 5211,6547.5 c 0,331.647 -268.4053,600.5 -599.5,600.5 -331.0947,0 -599.5,-268.853 -599.5,-600.5 0,-331.647 268.4053,-600.5 599.5,-600.5 331.0947,0 599.5,268.853 599.5,600.5"
           style="fill:none;stroke:#000000;stroke-width:24;stroke-linecap:round;stroke-linejoin:round;stroke-miterlimit:10;stroke-dasharray:none;stroke-opacity:1"
           id="path80"
           inkscape:connector-curvature="0" /><path
           d="m 5211,6547 h 9846"
           style="fill:none;stroke:#000000;stroke-width:24;stroke-linecap:round;stroke-linejoin:round;stroke-miterlimit:10;stroke-dasharray:none;stroke-opacity:1"
           id="path82"
           inkscape:connector-curvature="0" /><text
           transform="matrix(1,0,0,-1,5499,6760)"
           style="font-variant:normal;font-weight:normal;font-size:670.56896973px;font-family:Arial;-inkscape-font-specification:ArialMT;writing-mode:lr-tb;fill:#000000;fill-opacity:1;fill-rule:nonzero;stroke:none"
           id="text86"><tspan
             x="0 447.26953 633.68768 1117.8385 1565.108 1751.5262 2198.7957 2385.2139 2832.4834"
             y="0"
             sodipodi:role="line"
             id="tspan84">SIDE VIEW</tspan></text>
</g></g><g
       id="g98"><g
         id="g100"
         clip-path="url(#clipPath104)" /></g></g></svg>