<?xml version="1.0" encoding="UTF-8" standalone="no"?>
<!-- Created with Inkscape (http://www.inkscape.org/) -->

<svg
   xmlns:dc="http://purl.org/dc/elements/1.1/"
   xmlns:cc="http://creativecommons.org/ns#"
   xmlns:rdf="http://www.w3.org/1999/02/22-rdf-syntax-ns#"
   xmlns:svg="http://www.w3.org/2000/svg"
   xmlns="http://www.w3.org/2000/svg"
   xmlns:sodipodi="http://sodipodi.sourceforge.net/DTD/sodipodi-0.dtd"
   xmlns:inkscape="http://www.inkscape.org/namespaces/inkscape"
   version="1.1"
   id="svg2"
   xml:space="preserve"
   width="741.17352"
   height="533.4093"
   viewBox="0 0 741.17352 533.4093"
   sodipodi:docname="rupture-area.svg"
   inkscape:version="0.92.4 (5da689c313, 2019-01-14)"><metadata
     id="metadata8"><rdf:RDF><cc:Work
         rdf:about=""><dc:format>image/svg+xml</dc:format><dc:type
           rdf:resource="http://purl.org/dc/dcmitype/StillImage" /><dc:title /></cc:Work></rdf:RDF></metadata><defs
     id="defs6"><clipPath
       clipPathUnits="userSpaceOnUse"
       id="clipPath18"><path
         d="M 350,314 H 18848 V 24860 H 350 V 314"
         id="path16"
         inkscape:connector-curvature="0" /></clipPath><clipPath
       clipPathUnits="userSpaceOnUse"
       id="clipPath62"><path
         d="M 350,314 H 18848 V 24860 H 350 V 314"
         id="path60"
         inkscape:connector-curvature="0" /></clipPath><clipPath
       clipPathUnits="userSpaceOnUse"
       id="clipPath74"><path
         d="M 350,314 H 18848 V 24860 H 350 V 314"
         id="path72"
         inkscape:connector-curvature="0" /></clipPath><clipPath
       clipPathUnits="userSpaceOnUse"
       id="clipPath136"><path
         d="M 0,0 H 20399 V 26399 H 0 V 0"
         id="path134"
         inkscape:connector-curvature="0" /></clipPath><clipPath
       clipPathUnits="userSpaceOnUse"
       id="clipPath146"><path
         d="M 0,0 H 20399 V 26399 H 0 V 0"
         id="path144"
         inkscape:connector-curvature="0" /></clipPath><clipPath
       clipPathUnits="userSpaceOnUse"
       id="clipPath154"><path
         d="M 0,0 H 20399 V 26399 H 0 V 0"
         id="path152"
         inkscape:connector-curvature="0" /></clipPath><clipPath
       clipPathUnits="userSpaceOnUse"
       id="clipPath166"><path
         d="M 0,0 H 20399 V 26399 H 0 V 0"
         id="path164"
         inkscape:connector-curvature="0" /></clipPath></defs><sodipodi:namedview
     pagecolor="#ffffff"
     bordercolor="#666666"
     borderopacity="1"
     objecttolerance="10"
     gridtolerance="10"
     guidetolerance="10"
     inkscape:pageopacity="0"
     inkscape:pageshadow="2"
     inkscape:window-width="1920"
     inkscape:window-height="1057"
     id="namedview4"
     showgrid="false"
     inkscape:zoom="3.5757576"
     inkscape:cx="131.28735"
     inkscape:cy="58.29314"
     inkscape:window-x="1912"
     inkscape:window-y="-8"
     inkscape:window-maximized="1"
     inkscape:current-layer="g10" /><g
     inkscape:groupmode="layer"
     id="layer1"
     inkscape:label="fills"><path
       style="opacity:1;fill:#ff0000;fill-opacity:1;stroke:none;stroke-width:1.69327652;stroke-linecap:round;stroke-linejoin:round;stroke-miterlimit:4;stroke-dasharray:none;stroke-opacity:1"
       d="m 323.9752,107.0108 c 0.12674,-8.989991 0.0438,-18.016499 -0.2652,-19.694372 -0.86392,-4.691146 -3.45631,-9.990874 -6.72132,-13.065859 -3.38268,-3.185804 -9.40615,-6.123989 -13.97302,-6.877005 -2.04583,-0.337333 -45.07105,-0.06284 -114.01258,-0.06486 -83.8939,-0.0025 -108.579488,0.632344 -110.239401,0.131611 C 75.865308,66.565986 69.675197,63.835161 68.207813,60.783162 67.168018,58.6205 65.750326,54.739821 65.750326,46.608458 V 37.44237 H 209.75032 353.75033 v 42.76 42.76 h -14.34376 l -15.65624,0 z"
       id="path1083"
       inkscape:connector-curvature="0"
       sodipodi:nodetypes="scscsssscccccccs" /><path
       style="opacity:1;fill:#ff0000;fill-opacity:1;stroke:none;stroke-width:1.72887123;stroke-linecap:round;stroke-linejoin:round;stroke-miterlimit:4;stroke-dasharray:none;stroke-opacity:1"
       d="m 333.85677,324.40867 c -3.83188,-1.27023 -6.85976,-3.94127 -8.70313,-7.67737 l -1.3928,-2.82297 -0.005,-72.973 -0.005,-72.97296 h 15 15 v 78.76002 78.75998 l -8.38236,-0.0185 c -6.56846,-0.0144 -9.0592,-0.24279 -11.51022,-1.05527 z"
       id="path1085"
       inkscape:connector-curvature="0" /><path
       style="opacity:1;fill:#ff0000;fill-opacity:1;stroke:none;stroke-width:1.67796612;stroke-linecap:round;stroke-linejoin:round;stroke-miterlimit:4;stroke-dasharray:none;stroke-opacity:1"
       d="m 377.81482,246.92488 -0.0645,-78.96252 14.9286,-0.10914 15.0714,0.10914 -0.15751,73.81322 -0.12896,71.58122 -1.53416,3.97484 c -1.73325,2.78705 -3.91982,5.22343 -6.56868,6.61858 -1.95385,1.0291 -4.19108,1.28032 -12.10267,1.46949 l -9.50802,0.0627 z"
       id="path1087"
       inkscape:connector-curvature="0"
       transform="translate(0,1e-5)"
       sodipodi:nodetypes="ccccccccccc" /><path
       style="opacity:1;fill:#ff0000;fill-opacity:1;stroke:none;stroke-width:1.67796612;stroke-linecap:round;stroke-linejoin:round;stroke-miterlimit:4;stroke-dasharray:none;stroke-opacity:1"
       d="m 378.3092,80.189427 -0.55887,-42.747067 144.08357,0.02885 143.91643,-0.02885 -0.0171,9.327576 c -0.0187,10.208013 -1.42543,13.65137 -5.39905,17.230966 -4.4836,4.039007 5.60784,3.323778 -117.56638,3.327358 -68.87445,0.002 -113.14049,-4.72e-4 -115.17513,0.33273 -10.49603,1.718872 -17.91601,9.033704 -19.61055,19.659793 -0.31887,1.999576 -0.23209,11.039619 -0.23442,19.576267 l 0.003,16.06531 -15.17842,-0.0547 -14.82158,0.0547 z"
       id="path1089"
       inkscape:connector-curvature="0"
       transform="translate(0,1e-5)"
       sodipodi:nodetypes="ccccsssssccccc" /><rect
       style="opacity:1;fill:#ff0000;fill-opacity:0.49019608;stroke:none;stroke-width:3;stroke-linecap:round;stroke-linejoin:round;stroke-miterlimit:4;stroke-dasharray:none;stroke-opacity:1"
       id="rect1096"
       width="29.999487"
       height="45"
       x="323.75085"
       y="122.96237" /><rect
       style="opacity:1;fill:#ff0000;fill-opacity:0.49019608;stroke:none;stroke-width:3;stroke-linecap:round;stroke-linejoin:round;stroke-miterlimit:4;stroke-dasharray:none;stroke-opacity:1"
       id="rect1098"
       width="30"
       height="45"
       x="377.75034"
       y="122.96237" /></g><g
     id="g10"
     inkscape:groupmode="layer"
     inkscape:label="2l-rup-area"
     transform="matrix(0.04,0,0,-0.04,-13.369674,729.00237)"><path
   d="M 8428,15939 V 10463"
   style="fill:none;stroke:#000000;stroke-width:24;stroke-linecap:round;stroke-linejoin:round;stroke-miterlimit:10;stroke-dasharray:none;stroke-opacity:1"
   id="path20"
   inkscape:connector-curvature="0" /><path
   d="m 8803,10088 h 375 v 7201 0 0 H 1978"
   style="fill:none;stroke:#000000;stroke-width:24;stroke-linecap:round;stroke-linejoin:round;stroke-miterlimit:10;stroke-dasharray:none;stroke-opacity:1"
   id="path22"
   inkscape:connector-curvature="0" /><path
   d="m 8428,15939.5 c 0,331.647 -268.4053,600.5 -599.5,600.5"
   style="fill:none;stroke:#000000;stroke-width:24;stroke-linecap:round;stroke-linejoin:round;stroke-miterlimit:10;stroke-dasharray:none;stroke-opacity:1"
   id="path24"
   inkscape:connector-curvature="0" /><path
   d="M 2353,16539 H 7828"
   style="fill:none;stroke:#000000;stroke-width:24;stroke-linecap:round;stroke-linejoin:round;stroke-miterlimit:10;stroke-dasharray:none;stroke-opacity:1"
   id="path26"
   inkscape:connector-curvature="0" /><path
   d="m 1979,16914.5 c 0,-207.383 167.6694,-375.5 374.5,-375.5"
   style="fill:none;stroke:#000000;stroke-width:24;stroke-linecap:round;stroke-linejoin:round;stroke-miterlimit:10;stroke-dasharray:none;stroke-opacity:1"
   id="path28"
   inkscape:connector-curvature="0" /><path
   d="m 1978,17289 v -375"
   style="fill:none;stroke:#000000;stroke-width:24;stroke-linecap:round;stroke-linejoin:round;stroke-miterlimit:10;stroke-dasharray:none;stroke-opacity:1"
   id="path30"
   inkscape:connector-curvature="0" /><path
   d="m 8429,10463.5 c 0,-207.383 167.6689,-375.5 374.5,-375.5"
   style="fill:none;stroke:#000000;stroke-width:24;stroke-linecap:round;stroke-linejoin:round;stroke-miterlimit:10;stroke-dasharray:none;stroke-opacity:1"
   id="path32"
   inkscape:connector-curvature="0" /><path
   d="M 9178,15151 H 8428"
   style="fill:none;stroke:#000000;stroke-width:24;stroke-linecap:round;stroke-linejoin:round;stroke-miterlimit:10;stroke-dasharray:none;stroke-opacity:1"
   id="path34"
   inkscape:connector-curvature="0" /><path
   d="M 9178,14026 H 8428"
   style="fill:none;stroke:#000000;stroke-width:24;stroke-linecap:round;stroke-linejoin:round;stroke-miterlimit:10;stroke-dasharray:none;stroke-opacity:1"
   id="path36"
   inkscape:connector-curvature="0" /><path
   d="M 10528,15939 V 10463"
   style="fill:none;stroke:#000000;stroke-width:24;stroke-linecap:round;stroke-linejoin:round;stroke-miterlimit:10;stroke-dasharray:none;stroke-opacity:1"
   id="path38"
   inkscape:connector-curvature="0" /><path
   d="m 10153,10088 h -375 v 7201 0 0 h 7200"
   style="fill:none;stroke:#000000;stroke-width:24;stroke-linecap:round;stroke-linejoin:round;stroke-miterlimit:10;stroke-dasharray:none;stroke-opacity:1"
   id="path40"
   inkscape:connector-curvature="0" /><path
   d="m 11128.5,16540 c -331.095,0 -599.5,-268.853 -599.5,-600.5"
   style="fill:none;stroke:#000000;stroke-width:24;stroke-linecap:round;stroke-linejoin:round;stroke-miterlimit:10;stroke-dasharray:none;stroke-opacity:1"
   id="path42"
   inkscape:connector-curvature="0" /><path
   d="M 16603,16539 H 11128"
   style="fill:none;stroke:#000000;stroke-width:24;stroke-linecap:round;stroke-linejoin:round;stroke-miterlimit:10;stroke-dasharray:none;stroke-opacity:1"
   id="path44"
   inkscape:connector-curvature="0" /><path
   d="m 16603.5,16539 c 206.83,0 374.5,168.117 374.5,375.5"
   style="fill:none;stroke:#000000;stroke-width:24;stroke-linecap:round;stroke-linejoin:round;stroke-miterlimit:10;stroke-dasharray:none;stroke-opacity:1"
   id="path46"
   inkscape:connector-curvature="0" /><path
   d="m 16978,17289 v -375"
   style="fill:none;stroke:#000000;stroke-width:24;stroke-linecap:round;stroke-linejoin:round;stroke-miterlimit:10;stroke-dasharray:none;stroke-opacity:1"
   id="path48"
   inkscape:connector-curvature="0" /><path
   d="m 10153.5,10088 c 206.831,0 374.5,168.117 374.5,375.5"
   style="fill:none;stroke:#000000;stroke-width:24;stroke-linecap:round;stroke-linejoin:round;stroke-miterlimit:10;stroke-dasharray:none;stroke-opacity:1"
   id="path50"
   inkscape:connector-curvature="0" /><path
   d="M 9778,15151 H 10150.344 10528"
   style="fill:none;stroke:#000000;stroke-width:24;stroke-linecap:round;stroke-linejoin:round;stroke-miterlimit:10;stroke-dasharray:none;stroke-opacity:1"
   id="path52"
   inkscape:connector-curvature="0"
   sodipodi:nodetypes="ccc" /><path
   d="m 9778,14026 h 750"
   style="fill:none;stroke:#000000;stroke-width:24;stroke-linecap:round;stroke-linejoin:round;stroke-miterlimit:10;stroke-dasharray:none;stroke-opacity:1"
   id="path54"
   inkscape:connector-curvature="0" /><text
   transform="scale(1,-1)"
   style="font-variant:normal;font-weight:normal;font-size:670.56896973px;font-family:Arial;-inkscape-font-specification:ArialMT;writing-mode:lr-tb;fill:#000000;fill-opacity:1;fill-rule:nonzero;stroke:none"
   id="text66"
   x="3900.0342"
   y="-5963.0083"><tspan
     x="3900.0342"
     y="-5963.0083"
     id="tspan64">A</tspan></text>

<path
   d="m 4714,6188.5 c 0,331.647 -268.4053,600.5 -599.5,600.5 -331.0947,0 -599.5,-268.853 -599.5,-600.5 0,-331.647 268.4053,-600.5 599.5,-600.5 331.0947,0 599.5,268.853 599.5,600.5"
   style="fill:none;stroke:#000000;stroke-width:24;stroke-linecap:round;stroke-linejoin:round;stroke-miterlimit:10;stroke-dasharray:none;stroke-opacity:1"
   id="path76"
   inkscape:connector-curvature="0" /><path
   d="M 4714,6188 H 15666"
   style="fill:none;stroke:#000000;stroke-width:24;stroke-linecap:round;stroke-linejoin:round;stroke-miterlimit:10;stroke-dasharray:none;stroke-opacity:1"
   id="path78"
   inkscape:connector-curvature="0" /><text
   transform="scale(1,-1)"
   style="font-variant:normal;font-weight:normal;font-size:670.56896973px;font-family:Arial;-inkscape-font-specification:ArialMT;writing-mode:lr-tb;fill:#000000;fill-opacity:1;fill-rule:nonzero;stroke:none"
   id="text82"
   x="5002"
   y="-6401"><tspan
     x="5002 5449.2695 5933.4204 6380.6899 6827.9595 7014.3774 7200.7959 7684.9463 7871.3647 8281.082 8728.3516 9212.5029 9659.7725 9846.1904 10367.893"
     y="-6401"
     sodipodi:role="line"
     id="tspan80">AREA IN TENSION</tspan></text>

<path
   d="M 8188,15151 H 6898"
   style="fill:none;stroke:#000000;stroke-width:24;stroke-linecap:round;stroke-linejoin:round;stroke-miterlimit:10;stroke-dasharray:none;stroke-opacity:1"
   id="path84"
   inkscape:connector-curvature="0" /><path
   d="M 8188,14026 H 6898"
   style="fill:none;stroke:#000000;stroke-width:24;stroke-linecap:round;stroke-linejoin:round;stroke-miterlimit:10;stroke-dasharray:none;stroke-opacity:1"
   id="path86"
   inkscape:connector-curvature="0" /><path
   d="M 7330,15151 V 14026"
   style="fill:none;stroke:#000000;stroke-width:24;stroke-linecap:round;stroke-linejoin:round;stroke-miterlimit:10;stroke-dasharray:none;stroke-opacity:1"
   id="path88"
   inkscape:connector-curvature="0" /><text
   transform="scale(1,-1)"
   style="font-variant:normal;font-weight:normal;font-size:603.51202393px;font-family:Arial;-inkscape-font-specification:ArialMT;writing-mode:lr-tb;fill:#000000;fill-opacity:1;fill-rule:nonzero;stroke:none"
   id="text92"
   x="6329"
   y="-14376"><tspan
     x="6329"
     y="-14376"
     id="tspan90">d</tspan></text>

<text
   transform="scale(1,-1)"
   style="font-variant:normal;font-weight:normal;font-size:422.45800781px;font-family:Arial;-inkscape-font-specification:ArialMT;writing-mode:lr-tb;fill:#000000;fill-opacity:1;fill-rule:nonzero;stroke:none"
   id="text96"
   x="6637"
   y="-14239"><tspan
     x="6637"
     y="-14239"
     id="tspan94">h</tspan></text>

<path
   d="m 7546,14935 -432,432"
   style="fill:none;stroke:#000000;stroke-width:24;stroke-linecap:round;stroke-linejoin:round;stroke-miterlimit:10;stroke-dasharray:none;stroke-opacity:1"
   id="path98"
   inkscape:connector-curvature="0" /><path
   d="m 7114,14242 432,-432"
   style="fill:none;stroke:#000000;stroke-width:24;stroke-linecap:round;stroke-linejoin:round;stroke-miterlimit:10;stroke-dasharray:none;stroke-opacity:1"
   id="path100"
   inkscape:connector-curvature="0" /><path
   d="M 8428,10223 V 9028"
   style="fill:none;stroke:#000000;stroke-width:24;stroke-linecap:round;stroke-linejoin:round;stroke-miterlimit:10;stroke-dasharray:none;stroke-opacity:1"
   id="path102"
   inkscape:connector-curvature="0" /><path
   d="M 9178,9848 V 9028"
   style="fill:none;stroke:#000000;stroke-width:24;stroke-linecap:round;stroke-linejoin:round;stroke-miterlimit:10;stroke-dasharray:none;stroke-opacity:1"
   id="path104"
   inkscape:connector-curvature="0" /><path
   d="m 8428,9460 h 750"
   style="fill:none;stroke:#000000;stroke-width:24;stroke-linecap:round;stroke-linejoin:round;stroke-miterlimit:10;stroke-dasharray:none;stroke-opacity:1"
   id="path106"
   inkscape:connector-curvature="0" /><text
   transform="scale(1,-1)"
   style="font-variant:normal;font-weight:normal;font-size:603.51202393px;font-family:Arial;-inkscape-font-specification:ArialMT;writing-mode:lr-tb;fill:#000000;fill-opacity:1;fill-rule:nonzero;stroke:none"
   id="text110"
   x="8016"
   y="-8295"><tspan
     x="8016 8183.7764 8351.5527 8704.0039"
     y="-8295"
     sodipodi:role="line"
     id="tspan108">t = </tspan></text>

<text
   transform="scale(1,-1)"
   style="font-variant:normal;font-weight:normal;font-size:422.45800781px;font-family:Arial;-inkscape-font-specification:ArialMT;writing-mode:lr-tb;fill:#000000;fill-opacity:1;fill-rule:nonzero;stroke:none"
   id="text114"
   x="8854"
   y="-8511"><tspan
     x="8854"
     y="-8511"
     id="tspan112">5</tspan></text>

<path
   d="m 8949,8263 347,496"
   style="fill:none;stroke:#000000;stroke-width:24;stroke-linecap:round;stroke-linejoin:round;stroke-miterlimit:10;stroke-dasharray:none;stroke-opacity:1"
   id="path116"
   inkscape:connector-curvature="0" /><text
   transform="scale(1,-1)"
   style="font-variant:normal;font-weight:normal;font-size:422.45800781px;font-family:Arial;-inkscape-font-specification:ArialMT;writing-mode:lr-tb;fill:#000000;fill-opacity:1;fill-rule:nonzero;stroke:none"
   id="text120"
   x="9156"
   y="-8202"><tspan
     x="9156"
     y="-8202"
     id="tspan118">8</tspan></text>

<text
   transform="scale(1,-1)"
   style="font-variant:normal;font-weight:normal;font-size:603.51202393px;font-family:Arial;-inkscape-font-specification:ArialMT;writing-mode:lr-tb;fill:#000000;fill-opacity:1;fill-rule:nonzero;stroke:none"
   id="text124"
   x="9393"
   y="-8295"><tspan
     x="9393"
     y="-8295"
     id="tspan122">&quot;</tspan></text>

<path
   d="M 8644,9676 8212,9244"
   style="fill:none;stroke:#000000;stroke-width:24;stroke-linecap:round;stroke-linejoin:round;stroke-miterlimit:10;stroke-dasharray:none;stroke-opacity:1"
   id="path126"
   inkscape:connector-curvature="0" /><path
   d="m 8962,9244 432,432"
   style="fill:none;stroke:#000000;stroke-width:24;stroke-linecap:round;stroke-linejoin:round;stroke-miterlimit:10;stroke-dasharray:none;stroke-opacity:1"
   id="path128"
   inkscape:connector-curvature="0" /></g></svg>