<?xml version="1.0" encoding="UTF-8" standalone="no"?>
<svg
   xmlns:dc="http://purl.org/dc/elements/1.1/"
   xmlns:cc="http://creativecommons.org/ns#"
   xmlns:rdf="http://www.w3.org/1999/02/22-rdf-syntax-ns#"
   xmlns:svg="http://www.w3.org/2000/svg"
   xmlns="http://www.w3.org/2000/svg"
   xmlns:sodipodi="http://sodipodi.sourceforge.net/DTD/sodipodi-0.dtd"
   xmlns:inkscape="http://www.inkscape.org/namespaces/inkscape"
   viewBox="0 0 488.40387 130.30585"
   height="130.30585"
   width="488.40387"
   xml:space="preserve"
   id="svg2"
   version="1.1"
   sodipodi:docname="block-shear-path.svg"
   inkscape:version="0.92.5 (2060ec1f9f, 2020-04-08)"><sodipodi:namedview
     pagecolor="#ffffff"
     bordercolor="#666666"
     borderopacity="1"
     objecttolerance="10"
     gridtolerance="10"
     guidetolerance="10"
     inkscape:pageopacity="0"
     inkscape:pageshadow="2"
     inkscape:window-width="1920"
     inkscape:window-height="1019"
     id="namedview232"
     showgrid="false"
     inkscape:zoom="0.49709326"
     inkscape:cx="-349.86895"
     inkscape:cy="229.72615"
     inkscape:window-x="1920"
     inkscape:window-y="24"
     inkscape:window-maximized="1"
     inkscape:current-layer="svg2"
     inkscape:object-paths="true" /><metadata
     id="metadata8"><rdf:RDF><cc:Work
         rdf:about=""><dc:format>image/svg+xml</dc:format><dc:type
           rdf:resource="http://purl.org/dc/dcmitype/StillImage" /><dc:title /></cc:Work></rdf:RDF></metadata><defs
     id="defs6" /><path
     inkscape:connector-curvature="0"
     d="m 480.38605,32.392785 -476.73177,0.19198 0.0151,72.066685 475.35618,-0.23736"
     style="fill:none;stroke:#000000;stroke-width:0.95999998;stroke-linecap:round;stroke-linejoin:round;stroke-miterlimit:10;stroke-dasharray:none;stroke-opacity:1"
     id="path22" /><path
     inkscape:connector-curvature="0"
     d="m 3.69325,40.150905 476.50992,-0.23651"
     style="fill:none;stroke:#000000;stroke-width:0.95999998;stroke-linecap:round;stroke-linejoin:round;stroke-miterlimit:10;stroke-dasharray:none;stroke-opacity:1"
     id="path24" /><path
     inkscape:connector-curvature="0"
     d="m 480.21479,0.48683517 -0.4559,62.19215983 -8.2224,2.90071 16.46525,6.29094 -8.33357,2.87844 -0.37797,55.069935"
     style="fill:none;stroke:#000000;stroke-width:0.95999998;stroke-linecap:round;stroke-linejoin:round;stroke-miterlimit:10;stroke-dasharray:none;stroke-opacity:1"
     id="path1002" /><g
     inkscape:groupmode="layer"
     id="layer2"
     inkscape:label="ShearFailure"
     style="display:inline"
     transform="translate(-179.94412,-365.58347)"><path
       sodipodi:nodetypes="cc"
       inkscape:connector-curvature="0"
       id="path5886"
       d="m 502.79022,425.18424 -319.18616,0"
       style="fill:none;fill-rule:evenodd;stroke:#0092ff;stroke-width:4;stroke-linecap:butt;stroke-linejoin:miter;stroke-opacity:1;stroke-miterlimit:4;stroke-dasharray:none" /></g><g
     inkscape:groupmode="layer"
     id="layer3"
     inkscape:label="TensileFailure"
     style="display:inline"
     transform="translate(-179.94412,-365.58347)"><path
       style="fill:none;fill-rule:evenodd;stroke:#ff0000;stroke-width:4;stroke-linecap:butt;stroke-linejoin:miter;stroke-opacity:1;stroke-miterlimit:4;stroke-dasharray:none"
       d="m 497.12309,419.41053 0,50.66784"
       id="path6026"
       inkscape:connector-curvature="0"
       sodipodi:nodetypes="cc" /></g><g
     inkscape:groupmode="layer"
     id="layer1"
     inkscape:label="Bolts"
     style="display:inline"
     transform="translate(-179.94412,-365.58347)"><path
       inkscape:connector-curvature="0"
       d="m 212.27592,429.91759 c 2.59297,-1.72598 3.29581,-5.22719 1.56984,-7.82016 -1.72597,-2.59296 -5.22718,-3.29581 -7.82016,-1.56984 -2.59297,1.72598 -3.2958,5.22719 -1.56984,7.82016 1.72598,2.59297 5.22719,3.29581 7.82016,1.56984"
       style="fill:#000000;fill-opacity:1;stroke:#000000;stroke-width:0.95999998;stroke-linecap:round;stroke-linejoin:round;stroke-miterlimit:10;stroke-dasharray:none;stroke-opacity:1"
       id="path602" /><path
       inkscape:connector-curvature="0"
       d="m 248.28709,429.87674 c 2.59297,-1.72597 3.29582,-5.22718 1.56984,-7.82015 -1.72596,-2.59296 -5.22718,-3.29581 -7.82015,-1.56984 -2.59297,1.72597 -3.29581,5.22719 -1.56984,7.82015 1.72597,2.59297 5.22718,3.29582 7.82015,1.56984"
       style="fill:#000000;fill-opacity:1;stroke:#000000;stroke-width:0.95999998;stroke-linecap:round;stroke-linejoin:round;stroke-miterlimit:10;stroke-dasharray:none;stroke-opacity:1"
       id="path604" /><path
       inkscape:connector-curvature="0"
       d="m 284.29827,429.8359 c 2.59297,-1.72597 3.29581,-5.22718 1.56984,-7.82015 -1.72597,-2.59297 -5.22718,-3.29582 -7.82015,-1.56985 -2.59298,1.72598 -3.29581,5.2272 -1.56985,7.82016 1.72598,2.59297 5.22719,3.29581 7.82016,1.56984"
       style="fill:#000000;fill-opacity:1;stroke:#000000;stroke-width:0.95999998;stroke-linecap:round;stroke-linejoin:round;stroke-miterlimit:10;stroke-dasharray:none;stroke-opacity:1"
       id="path606" /><path
       inkscape:connector-curvature="0"
       d="m 320.24285,429.83938 c 2.59297,-1.72597 3.29581,-5.22718 1.56984,-7.82015 -1.72597,-2.59296 -5.22719,-3.29581 -7.82016,-1.56984 -2.59297,1.72597 -3.2958,5.22719 -1.56984,7.82015 1.72598,2.59297 5.22719,3.29582 7.82016,1.56984"
       style="fill:#000000;fill-opacity:1;stroke:#000000;stroke-width:0.95999998;stroke-linecap:round;stroke-linejoin:round;stroke-miterlimit:10;stroke-dasharray:none;stroke-opacity:1"
       id="path608" /><path
       inkscape:connector-curvature="0"
       d="m 356.29835,429.86514 c 2.59297,-1.72598 3.29581,-5.22719 1.56984,-7.82016 -1.72597,-2.59296 -5.22718,-3.29581 -7.82015,-1.56984 -2.59297,1.72597 -3.29581,5.22719 -1.56984,7.82016 1.72597,2.59297 5.22718,3.29581 7.82015,1.56984"
       style="fill:#000000;fill-opacity:1;stroke:#000000;stroke-width:0.95999998;stroke-linecap:round;stroke-linejoin:round;stroke-miterlimit:10;stroke-dasharray:none;stroke-opacity:1"
       id="path610" /><path
       inkscape:connector-curvature="0"
       d="m 392.30953,429.82429 c 2.59297,-1.72597 3.29581,-5.22718 1.56984,-7.82015 -1.72597,-2.59296 -5.22719,-3.29581 -7.82016,-1.56984 -2.59297,1.72597 -3.2958,5.22719 -1.56984,7.82015 1.72598,2.59297 5.22719,3.29581 7.82016,1.56984"
       style="fill:#000000;fill-opacity:1;stroke:#000000;stroke-width:0.95999998;stroke-linecap:round;stroke-linejoin:round;stroke-miterlimit:10;stroke-dasharray:none;stroke-opacity:1"
       id="path612" /><path
       inkscape:connector-curvature="0"
       d="m 428.25411,429.82778 c 2.59297,-1.72598 3.29581,-5.22719 1.56984,-7.82016 -1.72597,-2.59296 -5.22719,-3.29581 -7.82016,-1.56984 -2.59297,1.72598 -3.29581,5.22719 -1.56984,7.82016 1.72598,2.59297 5.22719,3.29581 7.82016,1.56984"
       style="fill:#000000;fill-opacity:1;stroke:#000000;stroke-width:0.95999998;stroke-linecap:round;stroke-linejoin:round;stroke-miterlimit:10;stroke-dasharray:none;stroke-opacity:1"
       id="path614" /><path
       inkscape:connector-curvature="0"
       d="m 464.26528,429.78693 c 2.593,-1.72599 3.29581,-5.22718 1.56984,-7.82015 -1.72597,-2.59296 -5.22715,-3.29584 -7.82015,-1.56984 -2.59301,1.72599 -3.29581,5.22719 -1.56984,7.82015 1.72597,2.59297 5.22715,3.29584 7.82015,1.56984"
       style="fill:#000000;fill-opacity:1;stroke:#000000;stroke-width:0.95999998;stroke-linecap:round;stroke-linejoin:round;stroke-miterlimit:10;stroke-dasharray:none;stroke-opacity:1"
       id="path616" /><path
       inkscape:connector-curvature="0"
       d="m 500.27646,429.74609 c 2.593,-1.726 3.29581,-5.22718 1.56984,-7.82015 -1.72597,-2.59297 -5.22715,-3.29584 -7.82016,-1.56984 -2.593,1.72599 -3.29581,5.22719 -1.56984,7.82015 1.72598,2.59297 5.22715,3.29583 7.82016,1.56984"
       style="fill:#000000;fill-opacity:1;stroke:#000000;stroke-width:0.95999998;stroke-linecap:round;stroke-linejoin:round;stroke-miterlimit:10;stroke-dasharray:none;stroke-opacity:1"
       id="path618" /></g></svg>